HIERARCHY
ROOT Hips
{
	OFFSET 0.00000 0.00000 0.00000
	CHANNELS 6 Xposition Yposition Zposition Zrotation Yrotation Xrotation 
	JOINT LHipJoint
	{
		OFFSET 0 0 0
		CHANNELS 3 Zrotation Yrotation Xrotation
		JOINT LeftUpLeg
		{
			OFFSET 1.38280 -1.96574 0.54427
			CHANNELS 3 Zrotation Yrotation Xrotation
			JOINT LeftLeg
			{
				OFFSET 2.72096 -7.47578 0.00000
				CHANNELS 3 Zrotation Yrotation Xrotation
				JOINT LeftFoot
				{
					OFFSET 2.73041 -7.50176 0.00000
					CHANNELS 3 Zrotation Yrotation Xrotation
					JOINT LeftToeBase
					{
						OFFSET 0.16150 -0.44371 2.18031
						CHANNELS 3 Zrotation Yrotation Xrotation
						End Site
						{
							OFFSET 0.00000 -0.00000 1.12127
						}
					}
				}
			}
		}
	}
	JOINT RHipJoint
	{
		OFFSET 0 0 0
		CHANNELS 3 Zrotation Yrotation Xrotation
		JOINT RightUpLeg
		{
			OFFSET -1.57224 -1.96575 0.54427
			CHANNELS 3 Zrotation Yrotation Xrotation
			JOINT RightLeg
			{
				OFFSET -2.95935 -8.13076 0.00000
				CHANNELS 3 Zrotation Yrotation Xrotation
				JOINT RightFoot
				{
					OFFSET -2.52345 -6.93311 0.00000
					CHANNELS 3 Zrotation Yrotation Xrotation
					JOINT RightToeBase
					{
						OFFSET -0.04475 -0.10171 1.86688
						CHANNELS 3 Zrotation Yrotation Xrotation
						End Site
						{
							OFFSET -0.00000 -0.00000 0.95157
						}
					}
				}
			}
		}
	}
	JOINT LowerBack
	{
		OFFSET 0 0 0
		CHANNELS 3 Zrotation Yrotation Xrotation
		JOINT Spine
		{
			OFFSET 0.00669 2.07367 0.09104
			CHANNELS 3 Zrotation Yrotation Xrotation
			JOINT Spine1
			{
				OFFSET -0.00664 2.06198 -0.04732
				CHANNELS 3 Zrotation Yrotation Xrotation
				JOINT Neck
				{
					OFFSET 0 0 0
					CHANNELS 3 Zrotation Yrotation Xrotation
					JOINT Neck1
					{
						OFFSET -0.00021 1.49948 0.16345
						CHANNELS 3 Zrotation Yrotation Xrotation
						JOINT Head
						{
							OFFSET 0.06080 1.50567 -0.26702
							CHANNELS 3 Zrotation Yrotation Xrotation
							End Site
							{
								OFFSET 0.01726 1.56470 -0.11854
							}
						}
					}
				}
				JOINT LeftShoulder
				{
					OFFSET 0 0 0
					CHANNELS 3 Zrotation Yrotation Xrotation
					JOINT LeftArm
					{
						OFFSET 3.14993 0.82932 -0.22488
						CHANNELS 3 Zrotation Yrotation Xrotation
						JOINT LeftForeArm
						{
							OFFSET 5.68236 -0.00000 -0.00000
							CHANNELS 3 Zrotation Yrotation Xrotation
							JOINT LeftHand
							{
								OFFSET 3.17112 -0.00000 0.00000
								CHANNELS 3 Zrotation Yrotation Xrotation
								JOINT LeftFingerBase
								{
									OFFSET 0 0 0
									CHANNELS 3 Zrotation Yrotation Xrotation
									JOINT LeftHandIndex1
									{
										OFFSET 0.63269 -0.00000 0.00000
										CHANNELS 3 Zrotation Yrotation Xrotation
										End Site
										{
											OFFSET 0.51009 -0.00000 0.00000
										}
									}
								}
								JOINT LThumb
								{
									OFFSET 0 0 0
									CHANNELS 3 Zrotation Yrotation Xrotation
									End Site
									{
										OFFSET 0.51788 -0.00000 0.51788
									}
								}
							}
						}
					}
				}
				JOINT RightShoulder
				{
					OFFSET 0 0 0
					CHANNELS 3 Zrotation Yrotation Xrotation
					JOINT RightArm
					{
						OFFSET -3.10571 0.91279 -0.33334
						CHANNELS 3 Zrotation Yrotation Xrotation
						JOINT RightForeArm
						{
							OFFSET -5.87120 -0.00000 -0.00000
							CHANNELS 3 Zrotation Yrotation Xrotation
							JOINT RightHand
							{
								OFFSET -3.37589 -0.00000 0.00000
								CHANNELS 3 Zrotation Yrotation Xrotation
								JOINT RightFingerBase
								{
									OFFSET 0 0 0
									CHANNELS 3 Zrotation Yrotation Xrotation
									JOINT RightHandIndex1
									{
										OFFSET -0.60326 -0.00000 0.00000
										CHANNELS 3 Zrotation Yrotation Xrotation
										End Site
										{
											OFFSET -0.48636 -0.00000 0.00000
										}
									}
								}
								JOINT RThumb
								{
									OFFSET 0 0 0
									CHANNELS 3 Zrotation Yrotation Xrotation
									End Site
									{
										OFFSET -0.49379 -0.00000 0.49379
									}
								}
							}
						}
					}
				}
			}
		}
	}
}
MOTION
Frames: 5
Frame Time: .0083333
7.2751 18.2993 -2.1236 0 0 0 0 0 0 -21 0 0 0 0 0 0 0 0 0 0 0 0 0 0 21 0 0 0 0 0 0 0 0 0 0 0 0 0 0 0 0 0 0 0 0 0 0 -16 0 0 21 0 0 11 0 0 0 -8 0 0 0 0 0 0 0 0 0 0 0 0 0 0 0 0 0 0 0 0 8 0 0 0 0 0 0 0 0 0 0 0 0 0 0 0 0 0
7.2751 18.2993 -2.1236 142.1480 -85.9281 -132.6740 0.0000 0.0000 0.0000 -23.7046 -8.8737 -16.9005 2.7290 10.2428 29.7668 1.7774 -1.0855 -24.9073 0.8419 -5.8528 -16.3578 0.0000 0.0000 0.0000 18.5772 10.8044 -10.2332 -2.4135 -9.6790 27.9432 0.8552 -17.2922 0.3022 -12.2526 18.4954 -66.7873 -3.4586 -0.0403 -11.9833 -0.7631 0.4470 -0.0447 1.2237 0.1039 6.6668 -2.8653 -1.1164 -20.2550 2.6448 -1.2996 17.9490 1.1997 -0.5277 9.0042 -0.0000 0.0000 0.0000 -90.7328 -1.9746 37.3473 17.9755 -28.1258 -4.5377 -0.0000 0.0000 -16.2372 19.6720 30.1873 10.1907 -7.1250 0.0000 -0.0000 -13.7290 61.1650 -5.4639 -0.0000 0.0000 0.0000 86.4768 -3.8208 8.6350 -14.5202 23.4735 -3.0322 0.0000 0.0000 20.4224 -20.7317 29.4933 -10.5557 7.1250 -0.0000 -0.0000 5.8755 1.0399 6.0127
7.2513 18.2853 -2.1031 143.4910 -85.9340 -134.0520 0.0000 0.0000 0.0000 -23.6945 -8.9933 -16.8676 2.7779 10.3266 30.0410 1.8115 -1.2118 -25.1144 0.8642 -5.9279 -16.5754 0.0000 0.0000 0.0000 18.6130 10.8975 -10.2281 -2.4662 -9.7762 28.2550 0.8625 -17.4013 0.4016 -12.2665 18.5011 -66.8312 -3.5626 -0.1193 -12.0072 -0.7188 0.3553 -0.0282 1.3131 0.0544 6.7015 -2.8315 -1.0095 -20.2250 2.5009 -1.1332 18.0075 1.1675 -0.4643 9.0128 0.0000 -0.0000 0.0000 -90.4984 -2.0680 38.9312 18.3955 -28.6606 -4.7374 -0.0000 0.0000 -16.1376 19.4894 29.9437 10.0182 -7.1250 0.0000 -0.0000 -13.7651 60.8814 -5.3857 0.0000 -0.0000 0.0000 86.4102 -3.5579 8.8255 -14.6661 23.6789 -3.0906 0.0000 0.0000 20.3333 -20.7811 29.4754 -10.5769 7.1250 -0.0000 -0.0000 5.8445 1.0312 5.9797
7.2285 18.2708 -2.0813 145.0590 -85.9413 -135.6560 0.0000 0.0000 0.0000 -23.6756 -9.0826 -16.8679 2.8320 10.4180 30.3414 1.8506 -1.3328 -25.3570 0.8738 -5.9598 -16.6679 0.0000 0.0000 0.0000 18.6411 10.8692 -10.3764 -2.5521 -9.9320 28.7569 0.8783 -17.5945 0.5046 -12.2495 18.4941 -66.7776 -3.6341 -0.1764 -11.9690 -0.6732 0.2845 -0.0356 1.3891 0.0173 6.6750 -2.8491 -0.9417 -20.1403 2.4321 -1.0229 18.0351 1.1617 -0.4228 9.0038 0.0000 0.0000 0.0000 -90.2662 -2.1346 40.5462 18.8399 -29.2192 -4.9524 -0.0000 0.0000 -16.1539 19.4308 29.9057 9.9750 -7.1250 0.0000 -0.0000 -13.8043 60.8299 -5.3845 0.0000 0.0000 0.0000 86.3242 -3.3019 9.0013 -14.7806 23.8396 -3.1367 0.0000 0.0000 20.1595 -20.9071 29.5357 -10.6648 7.1250 -0.0000 -0.0000 5.7790 1.1175 5.9206
7.2076 18.2539 -2.0591 146.5440 -85.9440 -137.1730 0.0000 0.0000 0.0000 -23.6623 -9.1632 -16.8991 2.8881 10.5116 30.6500 1.8837 -1.4738 -25.5494 0.8599 -5.9133 -16.5330 0.0000 0.0000 0.0000 18.6527 10.6957 -10.6369 -2.6494 -10.1046 29.3162 0.8948 -17.7455 0.4911 -12.2186 18.4815 -66.6800 -3.7132 -0.2277 -11.9020 -0.6265 0.2213 -0.0375 1.4718 -0.0161 6.6381 -2.8915 -0.8961 -20.0398 2.4006 -0.9436 18.0210 1.1683 -0.3931 8.9789 0.0000 -0.0000 0.0000 -90.0453 -2.2347 41.9671 19.2861 -29.7726 -5.1722 -0.0000 0.0000 -16.1485 19.3430 29.9901 9.9522 -7.1250 0.0000 -0.0000 -13.9589 60.8912 -5.4665 0.0000 -0.0000 0.0000 86.2386 -3.0750 9.2596 -14.9570 24.0861 -3.2084 0.0000 0.0000 19.7973 -20.9527 29.5192 -10.6843 7.1250 -0.0000 -0.0000 5.7505 1.1096 5.8903
